{
	"asset":{
		"generator":"Khronos glTF Blender I/O v4.2.57",
		"version":"2.0"
	},
	"scene":0,
	"scenes":[
		{
			"name":"Scene",
			"nodes":[
				0,
				1,
				2,
				3,
				4
			]
		}
	],
	"nodes":[
		{
			"mesh":0,
			"name":"chassis",
			"scale":[
				1.3422859907150269,
				1,
				0.7592911720275879
			]
		},
		{
			"mesh":1,
			"name":"wheel.steer.front.right",
			"rotation":[
				0.70710688829422,
				0,
				0,
				0.7071066498756409
			],
			"scale":[
				0.628684937953949,
				0.1257370114326477,
				0.6286849975585938
			],
			"translation":[
				0.8246755599975586,
				-1.718524694442749,
				0.739762544631958
			]
		},
		{
			"mesh":2,
			"name":"wheel.driving.rear.right",
			"rotation":[
				0.70710688829422,
				0,
				0,
				0.7071066498756409
			],
			"scale":[
				0.628684937953949,
				0.1257370114326477,
				0.6286849975585938
			],
			"translation":[
				-0.7919574975967407,
				-1.718524694442749,
				0.7317397594451904
			]
		},
		{
			"mesh":3,
			"name":"wheel.driving.rear.left",
			"rotation":[
				0.70710688829422,
				0,
				0,
				0.7071066498756409
			],
			"scale":[
				0.628684937953949,
				0.1257370114326477,
				0.6286849975585938
			],
			"translation":[
				-0.7716751098632812,
				-1.718524694442749,
				-0.6947168707847595
			]
		},
		{
			"mesh":4,
			"name":"wheel.steer.front.left",
			"rotation":[
				0.70710688829422,
				0,
				0,
				0.7071066498756409
			],
			"scale":[
				0.628684937953949,
				0.1257370114326477,
				0.6286849975585938
			],
			"translation":[
				0.8167370557785034,
				-1.718524694442749,
				-0.710496187210083
			]
		}
	],
	"materials":[
		{
			"doubleSided":true,
			"name":"Material.001",
			"pbrMetallicRoughness":{
				"baseColorFactor":[
					0.800000011920929,
					0.800000011920929,
					0.800000011920929,
					1
				],
				"metallicFactor":0,
				"roughnessFactor":0.5
			}
		}
	],
	"meshes":[
		{
			"name":"Cube.001",
			"primitives":[
				{
					"attributes":{
						"POSITION":0,
						"NORMAL":1,
						"TEXCOORD_0":2
					},
					"indices":3,
					"material":0
				}
			]
		},
		{
			"name":"Cylinder",
			"primitives":[
				{
					"attributes":{
						"POSITION":4,
						"NORMAL":5,
						"TEXCOORD_0":6
					},
					"indices":7
				}
			]
		},
		{
			"name":"Cylinder.001",
			"primitives":[
				{
					"attributes":{
						"POSITION":8,
						"NORMAL":9,
						"TEXCOORD_0":10
					},
					"indices":7
				}
			]
		},
		{
			"name":"Cylinder.002",
			"primitives":[
				{
					"attributes":{
						"POSITION":11,
						"NORMAL":12,
						"TEXCOORD_0":13
					},
					"indices":7
				}
			]
		},
		{
			"name":"Cylinder.003",
			"primitives":[
				{
					"attributes":{
						"POSITION":14,
						"NORMAL":15,
						"TEXCOORD_0":16
					},
					"indices":7
				}
			]
		}
	],
	"accessors":[
		{
			"bufferView":0,
			"componentType":5126,
			"count":24,
			"max":[
				1,
				1,
				1
			],
			"min":[
				-1,
				-1,
				-1
			],
			"type":"VEC3"
		},
		{
			"bufferView":1,
			"componentType":5126,
			"count":24,
			"type":"VEC3"
		},
		{
			"bufferView":2,
			"componentType":5126,
			"count":24,
			"type":"VEC2"
		},
		{
			"bufferView":3,
			"componentType":5123,
			"count":36,
			"type":"SCALAR"
		},
		{
			"bufferView":4,
			"componentType":5126,
			"count":192,
			"max":[
				1,
				1,
				1
			],
			"min":[
				-1,
				-1,
				-1
			],
			"type":"VEC3"
		},
		{
			"bufferView":5,
			"componentType":5126,
			"count":192,
			"type":"VEC3"
		},
		{
			"bufferView":6,
			"componentType":5126,
			"count":192,
			"type":"VEC2"
		},
		{
			"bufferView":7,
			"componentType":5123,
			"count":372,
			"type":"SCALAR"
		},
		{
			"bufferView":8,
			"componentType":5126,
			"count":192,
			"max":[
				1,
				1,
				1
			],
			"min":[
				-1,
				-1,
				-1
			],
			"type":"VEC3"
		},
		{
			"bufferView":9,
			"componentType":5126,
			"count":192,
			"type":"VEC3"
		},
		{
			"bufferView":10,
			"componentType":5126,
			"count":192,
			"type":"VEC2"
		},
		{
			"bufferView":11,
			"componentType":5126,
			"count":192,
			"max":[
				1,
				1,
				1
			],
			"min":[
				-1,
				-1,
				-1
			],
			"type":"VEC3"
		},
		{
			"bufferView":12,
			"componentType":5126,
			"count":192,
			"type":"VEC3"
		},
		{
			"bufferView":13,
			"componentType":5126,
			"count":192,
			"type":"VEC2"
		},
		{
			"bufferView":14,
			"componentType":5126,
			"count":192,
			"max":[
				1,
				1,
				1
			],
			"min":[
				-1,
				-1,
				-1
			],
			"type":"VEC3"
		},
		{
			"bufferView":15,
			"componentType":5126,
			"count":192,
			"type":"VEC3"
		},
		{
			"bufferView":16,
			"componentType":5126,
			"count":192,
			"type":"VEC2"
		}
	],
	"bufferViews":[
		{
			"buffer":0,
			"byteLength":288,
			"byteOffset":0,
			"target":34962
		},
		{
			"buffer":0,
			"byteLength":288,
			"byteOffset":288,
			"target":34962
		},
		{
			"buffer":0,
			"byteLength":192,
			"byteOffset":576,
			"target":34962
		},
		{
			"buffer":0,
			"byteLength":72,
			"byteOffset":768,
			"target":34963
		},
		{
			"buffer":0,
			"byteLength":2304,
			"byteOffset":840,
			"target":34962
		},
		{
			"buffer":0,
			"byteLength":2304,
			"byteOffset":3144,
			"target":34962
		},
		{
			"buffer":0,
			"byteLength":1536,
			"byteOffset":5448,
			"target":34962
		},
		{
			"buffer":0,
			"byteLength":744,
			"byteOffset":6984,
			"target":34963
		},
		{
			"buffer":0,
			"byteLength":2304,
			"byteOffset":7728,
			"target":34962
		},
		{
			"buffer":0,
			"byteLength":2304,
			"byteOffset":10032,
			"target":34962
		},
		{
			"buffer":0,
			"byteLength":1536,
			"byteOffset":12336,
			"target":34962
		},
		{
			"buffer":0,
			"byteLength":2304,
			"byteOffset":13872,
			"target":34962
		},
		{
			"buffer":0,
			"byteLength":2304,
			"byteOffset":16176,
			"target":34962
		},
		{
			"buffer":0,
			"byteLength":1536,
			"byteOffset":18480,
			"target":34962
		},
		{
			"buffer":0,
			"byteLength":2304,
			"byteOffset":20016,
			"target":34962
		},
		{
			"buffer":0,
			"byteLength":2304,
			"byteOffset":22320,
			"target":34962
		},
		{
			"buffer":0,
			"byteLength":1536,
			"byteOffset":24624,
			"target":34962
		}
	],
	"buffers":[
		{
			"byteLength":26160,
			"uri":"car.bin"
		}
	]
}
